<svg width="20" height="20" viewBox="0 0 20 20" fill="none" xmlns="http://www.w3.org/2000/svg">
<g clip-path="url(#clip0_162_182)">
<path d="M10 2.3999C5.80002 2.3999 2.40002 5.7999 2.40002 9.9999C2.40002 14.1999 5.80002 17.5999 10 17.5999C14.2 17.5999 17.6 14.1999 17.6 9.9999C17.6 5.7999 14.2 2.3999 10 2.3999ZM10 16.7999C6.24002 16.7999 3.20002 13.7599 3.20002 9.9999C3.20002 6.2399 6.24002 3.1999 10 3.1999C13.76 3.1999 16.8 6.2399 16.8 9.9999C16.8 13.7599 13.76 16.7999 10 16.7999ZM10 8.5999C9.22002 8.5999 8.60002 9.2199 8.60002 9.9999C8.60002 10.7799 9.22002 11.3999 10 11.3999C10.78 11.3999 11.4 10.7799 11.4 9.9999C11.4 9.2199 10.78 8.5999 10 8.5999ZM10 10.5999C9.66002 10.5999 9.40002 10.3199 9.40002 9.9999C9.40002 9.6599 9.66002 9.3999 10 9.3999C10.34 9.3999 10.6 9.6599 10.6 9.9999C10.6 10.3199 10.34 10.5999 10 10.5999ZM14 8.5999C13.22 8.5999 12.6 9.2199 12.6 9.9999C12.6 10.7799 13.22 11.3999 14 11.3999C14.78 11.3999 15.4 10.7799 15.4 9.9999C15.4 9.2199 14.78 8.5999 14 8.5999ZM14 10.5999C13.66 10.5999 13.4 10.3199 13.4 9.9999C13.4 9.6599 13.66 9.3999 14 9.3999C14.34 9.3999 14.6 9.6599 14.6 9.9999C14.6 10.3199 14.34 10.5999 14 10.5999ZM6.00002 8.5999C5.22002 8.5999 4.60002 9.2199 4.60002 9.9999C4.60002 10.7799 5.22002 11.3999 6.00002 11.3999C6.78002 11.3999 7.40002 10.7799 7.40002 9.9999C7.40002 9.2199 6.78002 8.5999 6.00002 8.5999ZM6.00002 10.5999C5.66002 10.5999 5.40002 10.3199 5.40002 9.9999C5.40002 9.6599 5.66002 9.3999 6.00002 9.3999C6.34002 9.3999 6.60002 9.6599 6.60002 9.9999C6.60002 10.3199 6.34002 10.5999 6.00002 10.5999Z" fill="#A6A6A6"/>
<path d="M132.8 -242V94.7999H-224V-242H132.8ZM134.4 -243.6H-225.6V96.3999H134.4V-243.6Z" fill="#0000FF"/>
</g>
<defs>
<clipPath id="clip0_162_182">
<rect width="20" height="20" fill="white"/>
</clipPath>
</defs>
</svg>
