<svg width="24" height="24" viewBox="0 0 24 24" fill="none" xmlns="http://www.w3.org/2000/svg">
<path d="M12 23C12.5304 23 13.0391 22.7893 13.4142 22.4142C13.7893 22.0391 14 21.5304 14 21H9.99997C9.99997 21.5304 10.2107 22.0391 10.5858 22.4142C10.9608 22.7893 11.4695 23 12 23ZM3.99997 19H20C20.1977 19 20.391 18.9413 20.5554 18.8314C20.7198 18.7215 20.848 18.5654 20.9236 18.3827C20.9993 18.2 21.0191 17.9989 20.9806 17.805C20.942 17.611 20.8468 17.4329 20.707 17.293L19 15.586V10C18.9968 8.3185 18.3889 6.69424 17.2873 5.42379C16.1858 4.15334 14.664 3.32145 13 3.08V2C13 1.73478 12.8946 1.48043 12.7071 1.29289C12.5195 1.10536 12.2652 1 12 1C11.7348 1 11.4804 1.10536 11.2929 1.29289C11.1053 1.48043 11 1.73478 11 2V3.08C9.33589 3.32145 7.81416 4.15334 6.71261 5.42379C5.61106 6.69424 5.00319 8.3185 4.99997 10V15.586L3.29297 17.293C3.15316 17.4329 3.05795 17.611 3.01939 17.805C2.98082 17.9989 3.00062 18.2 3.07629 18.3827C3.15196 18.5654 3.2801 18.7215 3.44451 18.8314C3.60892 18.9413 3.80222 19 3.99997 19ZM6.70697 16.707C6.89452 16.5195 6.99991 16.2652 6.99997 16V10C6.99997 8.67392 7.52675 7.40215 8.46444 6.46447C9.40212 5.52678 10.6739 5 12 5C13.3261 5 14.5978 5.52678 15.5355 6.46447C16.4732 7.40215 17 8.67392 17 10V16C17 16.2652 17.1054 16.5195 17.293 16.707L17.586 17H6.41397L6.70697 16.707Z" fill="#A6A6A6"/>
</svg>
