<svg width="20" height="20" viewBox="0 0 20 20" fill="none" xmlns="http://www.w3.org/2000/svg">
<g clip-path="url(#clip0_162_177)">
<path fill-rule="evenodd" clip-rule="evenodd" d="M16.5629 18H3.43792C2.73192 18 2.20991 17.303 2.47691 16.662C3.71291 13.698 6.61691 12 9.99991 12C13.3839 12 16.2879 13.698 17.5239 16.662C17.7909 17.303 17.2689 18 16.5629 18ZM5.91691 5.99998C5.91691 3.79398 7.74891 1.99998 9.99991 1.99998C12.2519 1.99998 14.0829 3.79398 14.0829 5.99998C14.0829 8.20598 12.2519 9.99998 9.99991 9.99998C7.74891 9.99998 5.91691 8.20598 5.91691 5.99998ZM19.9559 17.636C19.2139 14.277 16.8919 11.798 13.8369 10.673C15.4559 9.39596 16.3999 7.33093 16.0529 5.06993C15.6509 2.44693 13.4229 0.347977 10.7349 0.0419769C7.02291 -0.381023 3.87491 2.44898 3.87491 5.99998C3.87491 7.88998 4.76892 9.57396 6.16391 10.673C3.10692 11.798 0.786913 14.277 0.0439127 17.636C-0.226087 18.857 0.778915 20 2.05391 20H17.9459C19.2219 20 20.2259 18.857 19.9559 17.636Z" fill="#A6A6A6"/>
</g>
<defs>
<clipPath id="clip0_162_177">
<rect width="20" height="20" fill="white"/>
</clipPath>
</defs>
</svg>
