<svg width="24" height="24" viewBox="0 0 24 24" fill="none" xmlns="http://www.w3.org/2000/svg">
<path d="M16.5 6.6002C16.5 4.2002 14.5 2.2002 12 2.2002C9.49999 2.2002 7.49999 4.2002 7.49999 6.6002C7.49999 9.0002 9.49999 11.0002 12 11.0002C14.5 11.0002 16.5 9.0002 16.5 6.6002ZM9.49999 6.6002C9.49999 5.3002 10.6 4.2002 12 4.2002C13.4 4.2002 14.5 5.3002 14.5 6.6002C14.5 7.9002 13.4 9.0002 12 9.0002C10.6 9.0002 9.49999 7.9002 9.49999 6.6002ZM6.59999 16.8002C6.99999 15.1002 8.39999 14.0002 9.99999 14.0002H14C14.8 14.0002 15.6 14.3002 16.3 14.8002C16.7 15.2002 17.4 15.1002 17.7 14.7002C18.1 14.3002 18 13.6002 17.6 13.3002C16.6 12.5002 15.3 12.0002 14 12.0002H9.99999C7.49999 12.0002 5.29999 13.7002 4.59999 16.3002L4.09999 18.2002C3.79999 19.1002 3.99999 20.1002 4.59999 20.9002C5.19999 21.6002 5.99999 22.0002 6.99999 22.0002H13.9C14.5 22.0002 14.9 21.6002 14.9 21.0002C14.9 20.4002 14.5 20.0002 13.9 20.0002H6.99999C6.59999 20.0002 6.39999 19.8002 6.29999 19.6002C5.99999 19.4002 5.89999 19.0002 5.99999 18.7002L6.59999 16.8002Z" fill="#A6A6A6"/>
<path d="M18 22C18.6 22 19 21.6 19 21V20H20C20.6 20 21 19.6 21 19C21 18.4 20.6 18 20 18H19V17C19 16.4 18.6 16 18 16C17.4 16 17 16.4 17 17V18H16C15.4 18 15 18.4 15 19C15 19.6 15.4 20 16 20H17V21C17 21.6 17.4 22 18 22Z" fill="#A6A6A6"/>
</svg>
