<svg width="20" height="20" viewBox="0 0 20 20" fill="none" xmlns="http://www.w3.org/2000/svg">
<path d="M15.8334 1.66666H4.16675C3.50371 1.66666 2.86782 1.93005 2.39898 2.39889C1.93014 2.86773 1.66675 3.50362 1.66675 4.16666V15.8333C1.66675 16.4964 1.93014 17.1322 2.39898 17.6011C2.86782 18.0699 3.50371 18.3333 4.16675 18.3333H15.8334C15.9705 18.3314 16.1071 18.3175 16.2417 18.2917L16.4917 18.2333H16.5501H16.5917L16.9001 18.1167L17.0084 18.0583C17.0917 18.0083 17.1834 17.9667 17.2667 17.9083C17.378 17.8265 17.4838 17.7374 17.5834 17.6417L17.6417 17.5667C17.7236 17.4837 17.7988 17.3946 17.8667 17.3L17.9417 17.1917C18 17.0989 18.0501 17.0013 18.0917 16.9C18.1146 16.86 18.1341 16.8182 18.1501 16.775C18.1917 16.675 18.2167 16.5667 18.2501 16.4583V16.3333C18.2973 16.1705 18.3253 16.0027 18.3334 15.8333V4.16666C18.3334 3.50362 18.07 2.86773 17.6012 2.39889C17.1323 1.93005 16.4965 1.66666 15.8334 1.66666ZM4.16675 16.6667C3.94573 16.6667 3.73377 16.5789 3.57749 16.4226C3.42121 16.2663 3.33341 16.0543 3.33341 15.8333V12.2417L6.07508 9.49166C6.15255 9.41355 6.24472 9.35155 6.34627 9.30925C6.44782 9.26694 6.55674 9.24516 6.66675 9.24516C6.77676 9.24516 6.88568 9.26694 6.98723 9.30925C7.08878 9.35155 7.18095 9.41355 7.25841 9.49166L14.4251 16.6667H4.16675ZM16.6667 15.8333C16.666 15.9361 16.6462 16.0378 16.6084 16.1333C16.5894 16.1739 16.5671 16.213 16.5417 16.25C16.5195 16.2853 16.4944 16.3187 16.4667 16.35L12.0084 11.8917L12.7417 11.1583C12.8192 11.0802 12.9114 11.0182 13.0129 10.9759C13.1145 10.9336 13.2234 10.9118 13.3334 10.9118C13.4434 10.9118 13.5523 10.9336 13.6539 10.9759C13.7554 11.0182 13.8476 11.0802 13.9251 11.1583L16.6667 13.9083V15.8333ZM16.6667 11.55L15.1001 9.99999C14.6232 9.54748 13.9908 9.29522 13.3334 9.29522C12.676 9.29522 12.0436 9.54748 11.5667 9.99999L10.8334 10.7333L8.43341 8.33332C7.95652 7.88082 7.32416 7.62856 6.66675 7.62856C6.00933 7.62856 5.37698 7.88082 4.90008 8.33332L3.33341 9.88332V4.16666C3.33341 3.94564 3.42121 3.73368 3.57749 3.5774C3.73377 3.42112 3.94573 3.33332 4.16675 3.33332H15.8334C16.0544 3.33332 16.2664 3.42112 16.4227 3.5774C16.579 3.73368 16.6667 3.94564 16.6667 4.16666V11.55ZM11.2501 4.99999C11.0029 4.99999 10.7612 5.0733 10.5556 5.21065C10.3501 5.348 10.1898 5.54323 10.0952 5.77164C10.0006 6.00004 9.97587 6.25138 10.0241 6.49385C10.0723 6.73633 10.1914 6.95906 10.3662 7.13387C10.541 7.30869 10.7637 7.42774 11.0062 7.47597C11.2487 7.5242 11.5 7.49945 11.7284 7.40484C11.9568 7.31023 12.1521 7.15001 12.2894 6.94445C12.4268 6.73889 12.5001 6.49722 12.5001 6.24999C12.5001 5.91847 12.3684 5.60053 12.134 5.36611C11.8995 5.13169 11.5816 4.99999 11.2501 4.99999Z" fill="#1D9BF0"/>
</svg>
